HIERARCHY
ROOT Hips
{
	OFFSET 0.00000 0.00000 0.00000
	CHANNELS 6 Xposition Yposition Zposition Zrotation Yrotation Xrotation 
	JOINT LHipJoint
	{
		OFFSET 0 0 0
		CHANNELS 3 Zrotation Yrotation Xrotation
		JOINT LeftUpLeg
		{
			OFFSET 3.13874 -1.57224 1.49786
			CHANNELS 3 Zrotation Yrotation Xrotation
			JOINT LeftLeg
			{
				OFFSET 2.10955 -5.79594 0.00000
				CHANNELS 3 Zrotation Yrotation Xrotation
				JOINT LeftFoot
				{
					OFFSET 2.41843 -6.64458 0.00000
					CHANNELS 3 Zrotation Yrotation Xrotation
					JOINT LeftToeBase
					{
						OFFSET 0.04713 -0.12948 1.66229
						CHANNELS 3 Zrotation Yrotation Xrotation
						End Site
						{
							OFFSET 0.00000 -0.00000 0.85167
						}
					}
				}
			}
		}
	}
	JOINT RHipJoint
	{
		OFFSET 0 0 0
		CHANNELS 3 Zrotation Yrotation Xrotation
		JOINT RightUpLeg
		{
			OFFSET -3.13988 -1.57224 1.49786
			CHANNELS 3 Zrotation Yrotation Xrotation
			JOINT RightLeg
			{
				OFFSET -2.15006 -5.90725 0.00000
				CHANNELS 3 Zrotation Yrotation Xrotation
				JOINT RightFoot
				{
					OFFSET -2.34496 -6.44273 0.00000
					CHANNELS 3 Zrotation Yrotation Xrotation
					JOINT RightToeBase
					{
						OFFSET -0.08699 -0.23900 1.55223
						CHANNELS 3 Zrotation Yrotation Xrotation
						End Site
						{
							OFFSET -0.00000 -0.00000 0.80281
						}
					}
				}
			}
		}
	}
	JOINT LowerBack
	{
		OFFSET 0 0 0
		CHANNELS 3 Zrotation Yrotation Xrotation
		JOINT Spine
		{
			OFFSET 0.01292 1.96517 -0.16495
			CHANNELS 3 Zrotation Yrotation Xrotation
			JOINT Spine1
			{
				OFFSET 0.02122 1.88666 0.19706
				CHANNELS 3 Zrotation Yrotation Xrotation
				JOINT Neck
				{
					OFFSET 0 0 0
					CHANNELS 3 Zrotation Yrotation Xrotation
					JOINT Neck1
					{
						OFFSET -0.01683 1.81591 0.07903
						CHANNELS 3 Zrotation Yrotation Xrotation
						JOINT Head
						{
							OFFSET 0.00815 1.74013 -0.47700
							CHANNELS 3 Zrotation Yrotation Xrotation
							End Site
							{
								OFFSET -0.00204 1.83225 -0.16933
							}
						}
					}
				}
				JOINT LeftShoulder
				{
					OFFSET 0 0 0
					CHANNELS 3 Zrotation Yrotation Xrotation
					JOINT LeftArm
					{
						OFFSET 3.38482 1.41533 0.19802
						CHANNELS 3 Zrotation Yrotation Xrotation
						JOINT LeftForeArm
						{
							OFFSET 4.32712 -0.00000 0.00000
							CHANNELS 3 Zrotation Yrotation Xrotation
							JOINT LeftHand
							{
								OFFSET 3.28587 -0.00000 -0.00000
								CHANNELS 3 Zrotation Yrotation Xrotation
								JOINT LeftFingerBase
								{
									OFFSET 0 0 0
									CHANNELS 3 Zrotation Yrotation Xrotation
									JOINT LeftHandIndex1
									{
										OFFSET 0.43316 -0.00000 -0.00000
										CHANNELS 3 Zrotation Yrotation Xrotation
										End Site
										{
											OFFSET 0.34922 -0.00000 -0.00000
										}
									}
								}
								JOINT LThumb
								{
									OFFSET 0 0 0
									CHANNELS 3 Zrotation Yrotation Xrotation
									End Site
									{
										OFFSET 0.35456 -0.00000 0.35456
									}
								}
							}
						}
					}
				}
				JOINT RightShoulder
				{
					OFFSET 0 0 0
					CHANNELS 3 Zrotation Yrotation Xrotation
					JOINT RightArm
					{
						OFFSET -3.09725 1.62858 -0.14144
						CHANNELS 3 Zrotation Yrotation Xrotation
						JOINT RightForeArm
						{
							OFFSET -4.29104 -0.00000 0.00000
							CHANNELS 3 Zrotation Yrotation Xrotation
							JOINT RightHand
							{
								OFFSET -3.22720 -0.00000 -0.00000
								CHANNELS 3 Zrotation Yrotation Xrotation
								JOINT RightFingerBase
								{
									OFFSET 0 0 0
									CHANNELS 3 Zrotation Yrotation Xrotation
									JOINT RightHandIndex1
									{
										OFFSET -0.54362 -0.00000 -0.00000
										CHANNELS 3 Zrotation Yrotation Xrotation
										End Site
										{
											OFFSET -0.43828 -0.00000 -0.00000
										}
									}
								}
								JOINT RThumb
								{
									OFFSET 0 0 0
									CHANNELS 3 Zrotation Yrotation Xrotation
									End Site
									{
										OFFSET -0.44497 -0.00000 0.44497
									}
								}
							}
						}
					}
				}
			}
		}
	}
}
MOTION
Frames: 16
Frame Time: .0083333
-14.5784 16.2122 2.827 0 0 0 0 0 0 -21 0 0 0 0 0 0 0 0 0 0 0 0 0 0 21 0 0 0 0 0 0 0 0 0 0 0 0 0 0 0 0 0 0 0 0 0 0 -16 0 0 21 0 0 11 0 0 0 -8 0 0 0 0 0 0 0 0 0 0 0 0 0 0 0 0 0 0 0 0 8 0 0 0 0 0 0 0 0 0 0 0 0 0 0 0 0 0
-14.5784 16.2122 2.8270 -177.1700 -3.3358 -170.5640 0.0000 0.0000 0.0000 -32.3069 -31.8391 14.6286 0.0202 -0.9166 -2.5193 3.1636 -1.2877 -33.3896 4.3707 -12.6380 -38.0280 0.0000 0.0000 0.0000 40.4503 30.8482 20.5172 -0.3226 3.6508 -10.0963 -2.9290 -24.8276 -47.9321 -0.5766 -4.8627 13.5173 3.5213 2.8048 4.9413 1.2330 3.4475 -10.7238 -1.0805 0.9276 -14.4036 1.1573 1.5784 -18.8801 -4.0570 1.0929 34.8781 -1.9740 -0.8756 15.4701 -0.0000 -0.0000 0.0000 -80.4303 19.4478 30.6713 21.6369 -32.5642 -6.3893 -0.0000 -0.0000 1.3459 30.9921 28.8493 16.1632 -7.1250 0.0000 -0.0000 0.3630 62.7049 0.1561 -0.0000 -0.0000 0.0000 71.6399 -17.2382 51.5996 -17.9761 28.1265 -4.5380 0.0000 -0.0000 -0.4002 -27.2509 -18.6257 9.3415 7.1250 -0.0000 -0.0000 0.9166 -50.7399 -0.1296
-14.5869 16.2035 2.8486 -177.2220 -3.4262 -170.5200 0.0000 0.0000 0.0000 -32.4273 -32.0987 14.4328 0.0171 -0.8447 -2.3217 3.2436 -4.5526 -33.1046 2.9764 -10.6568 -31.1309 0.0000 0.0000 0.0000 40.0624 30.7737 20.3186 -0.3428 3.7622 -10.4086 -2.5319 -25.8382 -47.3707 -0.4456 -4.2829 11.8739 3.6437 2.7978 5.1103 1.1955 3.4667 -10.7124 -1.2006 0.9217 -14.4879 1.5433 1.6173 -18.8406 -4.5194 1.2221 34.6101 -2.2004 -0.8177 15.3455 -0.0000 -0.0000 0.0000 -80.5335 19.3971 30.4753 21.6484 -32.5774 -6.3955 -0.0000 -0.0000 1.5273 30.9212 28.8587 16.1248 -7.1250 0.0000 -0.0000 0.2701 62.6959 0.1161 -0.0000 -0.0000 0.0000 71.4889 -17.0536 51.6680 -18.0847 28.2654 -4.5893 0.0000 -0.0000 -0.4961 -27.3835 -18.1789 9.1799 7.1250 -0.0000 -0.0000 0.6980 -50.2735 -0.0907
-14.5830 16.1994 2.8652 -177.2400 -3.5034 -170.4830 0.0000 0.0000 0.0000 -32.3852 -32.1532 14.2064 0.0147 -0.7836 -2.1536 3.2029 -3.3590 -33.1129 3.4592 -11.4037 -33.6537 0.0000 0.0000 0.0000 40.0228 30.8017 20.1078 -0.3258 3.6688 -10.1467 -2.9438 -24.7223 -47.8960 -0.5963 -4.9436 13.7479 3.6258 2.7887 5.2303 1.1955 3.4673 -10.6900 -1.1966 0.9265 -14.5389 1.8529 1.6661 -18.8090 -4.8484 1.3354 34.4022 -2.3621 -0.7614 15.2506 0.0000 0.0000 0.0000 -80.6707 19.1404 30.2018 21.3871 -32.2774 -6.2554 -0.0000 -0.0000 1.6936 30.9936 29.0001 16.2372 -7.1250 0.0000 -0.0000 0.3039 62.8676 0.1319 0.0000 0.0000 0.0000 71.5857 -16.6865 51.5901 -18.0829 28.2632 -4.5884 0.0000 -0.0000 -0.4164 -27.5410 -18.6658 9.4752 7.1250 -0.0000 -0.0000 0.6323 -50.8350 -0.0909
-14.5672 16.1996 2.8762 -177.1940 -3.5485 -170.5010 0.0000 0.0000 0.0000 -32.2276 -32.2110 14.1349 0.0126 -0.7251 -1.9928 3.1507 -1.3888 -33.2926 4.3736 -12.6416 -38.0414 0.0000 0.0000 0.0000 40.1452 30.7929 20.0783 -0.3192 3.6314 -10.0419 -3.4530 -23.2787 -48.5613 -0.8387 -5.8419 16.3264 3.5174 2.7899 5.3375 1.2386 3.4783 -10.6355 -1.0962 0.9526 -14.5507 1.7433 1.6745 -18.8400 -4.6712 1.3357 34.3823 -2.2655 -0.7448 15.2451 0.0000 -0.0000 0.0000 -80.6634 18.9057 30.2394 21.0490 -31.8855 -6.0758 -0.0000 -0.0000 1.5944 31.2810 29.1351 16.4783 -7.1250 0.0000 -0.0000 0.6126 63.0913 0.2690 0.0000 -0.0000 0.0000 71.7211 -16.3918 51.4417 -18.2103 28.4256 -4.6489 0.0000 -0.0000 -0.0617 -27.2467 -19.9110 9.9471 7.1250 -0.0000 -0.0000 1.1891 -52.1429 -0.2091
-14.5512 16.2029 2.8863 -177.1160 -3.4978 -170.5390 0.0000 0.0000 0.0000 -32.1796 -32.4702 14.3266 0.0117 -0.6974 -1.9167 3.2122 -1.0544 -33.7146 4.5633 -12.8745 -38.9004 0.0000 0.0000 0.0000 40.2677 30.8997 19.9839 -0.3137 3.6004 -9.9552 -3.2187 -23.9643 -48.2629 -0.7278 -5.4509 15.1991 3.4198 2.8200 5.4561 1.2719 3.5309 -10.5712 -1.0205 0.9974 -14.5549 1.6655 1.6522 -18.9138 -4.4874 1.2628 34.4525 -2.1903 -0.7594 15.2895 -0.0000 -0.0000 0.0000 -80.5363 18.7973 30.3454 20.7515 -31.5371 -5.9194 -0.0000 -0.0000 1.6260 31.3006 29.1466 16.4959 -7.1250 0.0000 -0.0000 0.6327 63.1091 0.2781 -0.0000 -0.0000 0.0000 71.7828 -16.2564 51.3409 -18.2653 28.4955 -4.6751 0.0000 -0.0000 -0.2883 -27.4565 -19.2177 9.7055 7.1250 -0.0000 -0.0000 0.8274 -51.4244 -0.1309
-14.5340 16.2070 2.8977 -177.0010 -3.3810 -170.5670 0.0000 0.0000 0.0000 -32.0582 -32.6335 14.5178 0.0134 -0.7463 -2.0510 3.2887 -1.0842 -34.1150 4.5214 -12.8237 -38.7121 0.0000 0.0000 0.0000 40.4774 31.0724 19.9426 -0.3092 3.5749 -9.8838 -2.6935 -25.4246 -47.5922 -0.4974 -4.5214 12.5485 3.3219 2.8607 5.5750 1.3147 3.5987 -10.5014 -0.9367 1.0502 -14.5533 1.6769 1.6603 -19.0599 -4.3698 1.2186 34.6044 -2.1588 -0.7642 15.3932 -0.0000 -0.0000 0.0000 -80.4512 18.7057 30.2720 20.4492 -31.1797 -5.7621 -0.0000 -0.0000 1.9248 30.6149 29.3452 16.1721 -7.1250 0.0000 -0.0000 -0.3188 63.1348 -0.1403 -0.0000 -0.0000 0.0000 71.7759 -16.1103 51.3509 -18.3205 28.5656 -4.7015 0.0000 -0.0000 -0.4905 -27.5542 -18.7169 9.5050 7.1250 -0.0000 -0.0000 0.6289 -50.8934 -0.0913
-14.5201 16.2115 2.9111 -176.9860 -3.3725 -170.5120 0.0000 0.0000 0.0000 -31.9048 -32.7286 14.4383 0.0147 -0.7827 -2.1510 3.3164 -1.1714 -34.2386 4.4272 -12.7081 -38.2854 0.0000 0.0000 0.0000 40.5572 31.1935 19.7860 -0.2892 3.4581 -9.5568 -3.2198 -23.9525 -48.2572 -0.7205 -5.4241 15.1221 3.2276 2.8787 5.6416 1.2990 3.6236 -10.4578 -0.9099 1.0767 -14.5469 1.5087 1.6241 -19.0288 -4.1206 1.1374 34.5893 -2.0361 -0.7814 15.3708 0.0000 0.0000 0.0000 -80.4301 18.5593 30.1039 20.1055 -30.7693 -5.5852 -0.0000 -0.0000 2.2957 29.4175 30.0360 15.7613 -7.1250 0.0000 -0.0000 -2.1479 63.5424 -0.9662 0.0000 0.0000 0.0000 71.7526 -15.9869 51.4739 -18.3978 28.6635 -4.7385 0.0000 -0.0000 -0.7333 -27.6200 -18.7264 9.5357 7.1250 -0.0000 -0.0000 0.5644 -50.9155 -0.0823
-14.5090 16.2187 2.9224 -177.1080 -3.4034 -170.4170 0.0000 0.0000 0.0000 -31.8869 -32.8166 14.2977 0.0160 -0.8170 -2.2455 3.3111 -1.2394 -34.1924 4.3014 -12.5510 -37.7101 0.0000 0.0000 0.0000 40.4769 31.2467 19.6476 -0.2734 3.3632 -9.2917 -3.8490 -22.0764 -49.0730 -1.0427 -6.4939 18.2244 3.0410 2.8823 5.6660 1.2239 3.6058 -10.4398 -0.8886 1.0876 -14.5471 1.5339 1.6114 -19.0172 -4.1012 1.0971 34.6125 -2.0406 -0.7930 15.3775 0.0000 0.0000 0.0000 -80.4034 18.4055 29.8286 19.7176 -30.3007 -5.3882 -0.0000 -0.0000 2.7100 30.2883 29.9472 16.2553 -7.1250 0.0000 -0.0000 -1.0040 63.6880 -0.4549 0.0000 0.0000 0.0000 71.8474 -15.9045 51.4566 -18.4352 28.7108 -4.7564 0.0000 -0.0000 -0.8133 -27.6207 -18.6984 9.5225 7.1250 -0.0000 -0.0000 0.5582 -50.8849 -0.0809
-14.4978 16.2243 2.9312 -177.1470 -3.3738 -170.3550 0.0000 0.0000 0.0000 -31.8764 -32.9561 14.3275 0.0177 -0.8593 -2.3618 3.3216 -1.2340 -34.2496 4.2472 -12.4823 -37.4602 0.0000 0.0000 0.0000 40.4634 31.2848 19.6620 -0.2777 3.3893 -9.3645 -3.9958 -21.6452 -49.2859 -1.1504 -6.8102 19.1543 2.9217 2.8753 5.6785 1.1631 3.5815 -10.4171 -0.8867 1.0888 -14.5312 2.3329 1.6592 -19.1153 -4.9785 1.1872 34.6455 -2.5436 -0.7799 15.4368 0.0000 0.0000 0.0000 -80.2917 18.3138 29.5997 19.3260 -29.8218 -5.1920 -0.0000 -0.0000 2.8555 31.1348 29.6320 16.6292 -7.1250 0.0000 -0.0000 0.2184 63.5854 0.0985 0.0000 0.0000 0.0000 72.0207 -15.8608 51.4857 -18.5071 28.8016 -4.7911 0.0000 -0.0000 -0.8304 -27.6502 -18.8939 9.6285 7.1250 -0.0000 -0.0000 0.5663 -51.1046 -0.0852
-14.4873 16.2260 2.9414 -177.0600 -3.3304 -170.2930 0.0000 0.0000 0.0000 -31.7404 -33.1420 14.3309 0.0181 -0.8678 -2.3850 3.3276 -1.1494 -34.3041 4.3575 -12.6215 -37.9675 0.0000 0.0000 0.0000 40.5470 31.3661 19.6476 -0.2824 3.4179 -9.4444 -4.0941 -21.3861 -49.4527 -1.2037 -6.9606 19.5986 2.8959 2.8582 5.6964 1.1799 3.5582 -10.4120 -0.8505 1.0819 -14.5402 1.7259 1.7676 -18.5582 -4.0491 1.2231 34.4813 -2.0211 -0.7090 15.2140 0.0000 -0.0000 0.0000 -80.2589 18.2811 29.4211 18.9572 -29.3654 -5.0098 -0.0000 -0.0000 2.8449 31.7996 29.2597 16.8592 -7.1250 0.0000 -0.0000 1.2248 63.3685 0.5459 0.0000 -0.0000 0.0000 72.0851 -15.9039 51.6673 -18.6390 28.9676 -4.8548 0.0000 -0.0000 -0.8001 -27.6487 -19.4958 9.9171 7.1250 -0.0000 -0.0000 0.6888 -51.7639 -0.1147
-14.4776 16.2259 2.9551 -176.9710 -3.2853 -170.1850 0.0000 0.0000 0.0000 -31.5539 -33.3717 14.2166 0.0177 -0.8579 -2.3580 3.3433 -1.0906 -34.4024 4.4625 -12.7516 -38.4457 0.0000 0.0000 0.0000 40.6164 31.5496 19.4580 -0.2738 3.3660 -9.2995 -4.1569 -21.2449 -49.5775 -1.2056 -6.9661 19.6149 2.7650 2.8644 5.7203 1.2494 3.5562 -10.4250 -0.7015 1.0979 -14.5849 2.0100 1.8042 -18.3955 -4.2678 1.2573 34.3694 -2.1513 -0.6852 15.1295 -0.0000 -0.0000 0.0000 -80.3863 18.2629 29.1100 18.6741 -29.0118 -4.8718 -0.0000 -0.0000 2.9650 31.7848 29.3621 16.9007 -7.1250 0.0000 -0.0000 1.1650 63.4750 0.5221 -0.0000 -0.0000 0.0000 72.0251 -15.9932 51.7020 -18.6825 29.0223 -4.8759 0.0000 -0.0000 -0.6442 -27.5169 -19.4371 9.8348 7.1250 -0.0000 -0.0000 0.8112 -51.6754 -0.1334
-14.4706 16.2245 2.9714 -176.8960 -3.2151 -170.0790 0.0000 0.0000 0.0000 -31.5021 -33.8194 14.2759 0.0176 -0.8555 -2.3512 3.4391 -1.1407 -34.8911 4.3866 -12.6578 -38.1006 0.0000 0.0000 0.0000 40.6406 31.7623 19.2444 -0.2653 3.3137 -9.1533 -4.1576 -21.1550 -49.5173 -1.2562 -7.1053 20.0278 2.7530 2.9000 5.7874 1.2141 3.6068 -10.4214 -0.7462 1.1214 -14.6202 2.0867 1.7801 -18.4683 -4.1008 1.1291 34.4473 -2.1208 -0.7053 15.1765 -0.0000 -0.0000 0.0000 -80.4313 18.1888 28.5663 18.4623 -28.7451 -4.7695 -0.0000 -0.0000 3.2947 31.4369 29.7983 16.8976 -7.1250 0.0000 -0.0000 0.5353 63.8480 0.2446 -0.0000 -0.0000 0.0000 72.0529 -16.0945 51.6698 -18.6998 29.0440 -4.8843 0.0000 -0.0000 -0.6575 -27.3924 -18.9206 9.5380 7.1250 -0.0000 -0.0000 0.8324 -51.0878 -0.1248
-14.4643 16.2228 2.9883 -176.7680 -3.1640 -170.0470 0.0000 0.0000 0.0000 -31.4616 -34.2994 14.4703 0.0180 -0.8665 -2.3815 3.5368 -1.2710 -35.3619 4.2416 -12.4752 -37.4344 0.0000 0.0000 0.0000 40.7803 31.8957 19.1534 -0.2626 3.2964 -9.1052 -4.1254 -21.1021 -49.3655 -1.3154 -7.2645 20.5014 2.9450 2.8931 5.9563 1.1498 3.6312 -10.4057 -0.9362 1.1086 -14.6921 2.0406 1.7946 -18.4664 -3.7934 1.0480 34.5050 -1.9996 -0.7025 15.1967 0.0000 0.0000 0.0000 -80.4495 18.1308 27.7861 18.3177 -28.5621 -4.7002 -0.0000 -0.0000 3.8627 31.0312 29.9747 16.7293 -7.1250 0.0000 -0.0000 -0.0656 63.9239 -0.0301 0.0000 0.0000 0.0000 72.0430 -16.2347 51.9600 -18.8144 29.1874 -4.9400 0.0000 -0.0000 -0.9947 -27.2760 -18.5407 9.3109 7.1250 -0.0000 -0.0000 0.8747 -50.6513 -0.1218
-14.4573 16.2205 3.0055 -176.6810 -3.1452 -170.0190 0.0000 0.0000 0.0000 -31.2497 -34.3696 14.3301 0.0184 -0.8755 -2.4063 3.5407 -1.5200 -35.3176 4.1433 -12.3487 -36.9770 0.0000 0.0000 0.0000 40.9275 31.9938 19.0738 -0.2585 3.2708 -9.0336 -4.1438 -21.0460 -49.3922 -1.3555 -7.3700 20.8163 3.0083 2.8809 6.1722 1.1448 3.6384 -10.4124 -0.9880 1.1028 -14.8348 1.9050 1.8465 -18.2657 -3.5155 1.0669 34.4551 -1.8518 -0.6731 15.1235 -0.0000 -0.0000 0.0000 -80.5259 18.2086 27.2679 18.2922 -28.5296 -4.6879 -0.0000 -0.0000 4.2331 30.6057 29.9446 16.4504 -7.1250 0.0000 -0.0000 -0.5979 63.7733 -0.2721 -0.0000 -0.0000 0.0000 71.9502 -16.4255 52.2699 -18.9260 29.3267 -4.9946 0.0000 -0.0000 -1.3154 -27.1436 -18.4217 9.2027 7.1250 -0.0000 -0.0000 0.9843 -50.4981 -0.1334
-14.4517 16.2159 3.0225 -176.7530 -3.1002 -169.9190 0.0000 0.0000 0.0000 -31.1841 -34.4282 14.0832 0.0180 -0.8654 -2.3786 3.5390 -1.7582 -35.2485 3.9360 -12.0748 -35.9971 0.0000 0.0000 0.0000 40.8308 32.1233 18.9346 -0.2542 3.2438 -8.9584 -4.2501 -20.8012 -49.6027 -1.3916 -7.4634 21.0956 2.9479 2.9344 6.2709 1.0362 3.7049 -10.4025 -1.0927 1.1357 -14.8794 1.7971 1.8145 -18.2680 -3.2019 0.9315 34.5406 -1.7282 -0.7020 15.1558 0.0000 0.0000 0.0000 -80.4466 18.2048 27.1471 18.2883 -28.5248 -4.6861 -0.0000 -0.0000 4.2647 30.5030 29.9701 16.3987 -7.1250 0.0000 -0.0000 -0.7410 63.7720 -0.3372 0.0000 0.0000 0.0000 72.1305 -16.5567 52.0462 -18.8706 29.2575 -4.9674 0.0000 -0.0000 -1.1706 -27.0501 -18.3922 9.1525 7.1250 -0.0000 -0.0000 1.0723 -50.4496 -0.1440
